<svg xmlns="http://www.w3.org/2000/svg" version="1.1" width="32" height="32">
  <g transform="translate(16, 16)">
    <path d="M7.06-7.91H2.24L2-8.76a.53.53,0,0,1-.68-.31l-1.94-3.65L-2-13.57a.51.51,0,0,1,0-.62l.68-1.16L-2-16.92a.66.66,0,0,1-.68-.82l.68-1.16-.68-1.16a.54.54,0,0,1-.07-.31l.68-4H-5a17.89,17.89,0,0,0-.37-2.74,17.75,17.75,0,0,0-3.88-8.8A15.85,15.85,0,0,0-16-32,15.85,15.85,0,0,0-25.75-24.33,17.75,17.75,0,0,0-29.64-15a17.89,17.89,0,0,0-.37,2.74h-2.87l-.68,4a.54.54,0,0,1-.07.31l-.68,1.16.68,1.16a.51.51,0,0,1,0,.62l-.68,1.16,1.94,3.65a.53.53,0,0,1-.68.31l-.27-.85H-7.06l-.27.85A.53.53,0,0,1-8,.52L-6,4.16l-.68,1.16a.51.51,0,0,1,0,.62l.68,1.16-.68,1.16a.66.66,0,0,1-.68.82l.68,1.16-.68,1.16a.51.51,0,0,1,0,.62l.68,1.16,1.94,3.65a.53.53,0,0,1,.68.31l.21.85H-2.24l.27-.85a.53.53,0,0,1,.68-.31l1.94,3.65L2,8.76a.51.51,0,0,1,0,.62l-.68,1.16L2,12.11a.66.66,0,0,1,.68.82l-.68,1.16.68,1.16a.54.54,0,0,1,.07.31l-.68,4h2.87A17.89,17.89,0,0,0,.37,23.67,17.75,17.75,0,0,0,4.26,32,15.85,15.85,0,0,0,16,32a15.85,15.85,0,0,0,10.75-7.67,17.75,17.75,0,0,0,3.88-8.8A17.89,17.89,0,0,0,31,8.66h2.87l.68-4a.54.54,0,0,1,.07-.31l.68-1.16-.68-1.16A.66.66,0,0,1,34.75,0l.68-1.16-.68-1.16a.51.51,0,0,1,0-.62L35.75-4.39l-1.94-3.65a.53.53,0,0,1,.68-.31l.27.85h4.82l.27-.85a.53.53,0,0,1,.68-.31L43-8.76l.68-1.16a.51.51,0,0,1,0-.62l-.68-1.16.68-1.16a.66.66,0,0,1,.68-.82l-.68-1.16.68-1.16a.51.51,0,0,1,0-.62l-.68-1.16-1.94-3.65a.53.53,0,0,1-.68-.31L40.7-23.67h-4.82l-.27.85a.53.53,0,0,1-.68.31L34-19.79l.68-1.16a.51.51,0,0,1,0-.62l-.68-1.16L34-23.14a.66.66,0,0,1,.68-.82l-.68-1.16.68-1.16a.54.54,0,0,1,.07-.31l.68-4H36A17.89,17.89,0,0,0,35.63-28.26,17.75,17.75,0,0,0,31.74-37.1,15.85,15.85,0,0,0,20-39.91,15.85,15.85,0,0,0,9.25-37.1,17.75,17.75,0,0,0,5.36-28.26,17.89,17.89,0,0,0,5-25.52ZM16-25.65a9.17,9.17,0,0,1,8.61,5.82h-6.51l-.34,1a6.7,6.7,0,0,0-1.53,0l-.34-1H7.39A9.17,9.17,0,0,1,16-25.65ZM-2.39-21.82l.34-1a6.38,6.38,0,0,0,2.56,0l.34,1H-2.39Zm2.93-2.44a6.59,6.59,0,0,0,2.36-2.36H-2.39l-.34,1.06A6.59,6.59,0,0,0,1.54-24.26ZM-.16-27.18l-.34-1.06H1.54a6.59,6.59,0,0,0-2.36-2.36l-.34,1.06ZM7.39-28.67l.34-1a6.38,6.38,0,0,0,2.56,0l.34,1H7.39ZM5.46-26.23a6.59,6.59,0,0,0,2.36,2.36l-.34-1.06h-1.6ZM9.79-22.41l.34-1a6.7,6.7,0,0,0-1.53,0l-.34,1h-1.6A9.17,9.17,0,0,1,9.79-22.41Zm10.61-2.54L20-26.23h-1.6l-.34,1.06A6.59,6.59,0,0,0,19.87-24.26ZM21.25-27.18l.34-1.06h-1.6L20-25.82A6.59,6.59,0,0,0,21.25-27.18ZM20-21.82l.34-1.06A6.38,6.38,0,0,0,23-21.82h-1.56Zm1.93-2.44a6.59,6.59,0,0,0,2.36-2.36l-.34,1.06h-1.6ZM25.33-26.23a6.59,6.59,0,0,0,2.36,2.36h-1.56l-.34-1.06A6.59,6.59,0,0,0,25.33-26.23Zm1.93-3.42h1.56a6.7,6.7,0,0,0-1.53,0l-.34,1Zm-1.6-2.57l.34-1.06h1.56l-.34,1.06A6.59,6.59,0,0,0,27.25-32.22Zm1.53,6.59a6.7,6.7,0,0,0,1.53,0l.34-1h1.56A9.17,9.17,0,0,1,28.78-25.65Z"/>
  </g>
</svg>
