<?xml version="1.0" standalone="no"?>
<!DOCTYPE svg PUBLIC "-//W3C//DTD SVG 20010904//EN"
 "http://www.w3.org/TR/2001/REC-SVG-20010904/DTD/svg10.dtd">
<svg version="1.0" xmlns="http://www.w3.org/2000/svg"
 width="686.000000pt" height="686.000000pt" viewBox="0 0 686.000000 686.000000"
 preserveAspectRatio="xMidYMid meet">

<g transform="translate(0.000000,686.000000) scale(0.100000,-0.100000)"
fill="#00dc5a" stroke="none">
<path d="M4800 6597 c-122 -113 -380 -347 -795 -722 -165 -148 -383 -346 -485
-440 -102 -93 -277 -252 -388 -352 l-202 -183 525 0 525 0 0 -114 c0 -437
-143 -881 -412 -1281 -106 -157 -206 -275 -377 -445 -336 -334 -714 -590
-1206 -818 l-90 -42 65 6 c712 61 1402 237 1935 493 592 285 1061 684 1403
1193 42 63 192 323 192 333 0 2 20 46 45 99 66 142 165 433 181 533 l7 43 522
2 523 3 -312 281 c-171 155 -419 380 -552 500 -132 121 -376 342 -542 492
-166 151 -308 279 -315 285 -57 54 -195 177 -198 177 -2 0 -24 -19 -49 -43z"/>
<path d="M1035 5809 c-82 -12 -216 -54 -298 -95 -251 -124 -451 -353 -537
-614 -63 -191 -61 -114 -58 -2057 l3 -1768 27 -95 c52 -188 122 -322 235 -452
145 -167 303 -264 538 -330 l80 -23 1970 -3 c1431 -2 1992 0 2050 8 167 24
340 96 480 200 69 52 183 172 234 249 91 135 167 337 177 476 7 90 11 3185 4
3185 -3 0 -24 -28 -47 -63 -43 -64 -462 -666 -555 -797 l-53 -75 -5 -1100 -5
-1100 -23 -58 c-31 -76 -116 -168 -190 -204 l-57 -28 -1960 0 -1960 0 -59 29
c-107 53 -180 147 -205 266 -9 41 -11 482 -9 1765 l3 1710 26 61 c33 78 72
127 134 168 105 69 60 66 971 66 l822 0 149 158 c369 389 483 512 483 522 0
12 -2275 12 -2365 -1z"/>
</g>
</svg>
