<svg xmlns="http://www.w3.org/2000/svg" viewBox="0 0 32 32" width="32" height="32">
  <circle cx="8" cy="10" r="2" fill="#000" />
  <circle cx="16" cy="10" r="2" fill="#000" />
  <circle cx="24" cy="10" r="2" fill="#000" />
  <path d="M11 20c-2.121 0-4 1.755-4 4h2c0-1.103 0.897-2 2-2s2 0.897 2 2h2c0-2.245-1.879-4-4-4zM16 20c-2.121 0-4 1.755-4 4h2c0-1.103 0.897-2 2-2s2 0.897 2 2h2c0-2.245-1.879-4-4-4zM21 20c-2.121 0-4 1.755-4 4h2c0-1.103 0.897-2 2-2s2 0.897 2 2h2c0-2.245-1.879-4-4-4z" fill="#000" />
</svg>
